<mxfile host="65bd71144e">
    <diagram id="gTAzOBPRISm3bg13bbka" name="Страница 1">
        <mxGraphModel dx="65" dy="42" grid="1" gridSize="10" guides="1" tooltips="1" connect="1" arrows="1" fold="1" page="1" pageScale="1" pageWidth="827" pageHeight="1169" background="#ffffff" math="0" shadow="0">
            <root>
                <mxCell id="0"/>
                <mxCell id="1" parent="0"/>
                <mxCell id="5" style="edgeStyle=none;html=1;entryX=0.5;entryY=0;entryDx=0;entryDy=0;" parent="1" source="2" target="3" edge="1">
                    <mxGeometry relative="1" as="geometry"/>
                </mxCell>
                <mxCell id="2" value="&lt;div style=&quot;font-family: &amp;#34;consolas&amp;#34; , &amp;#34;courier new&amp;#34; , monospace ; line-height: 19px&quot;&gt;&lt;font style=&quot;font-size: 12px&quot; color=&quot;#000000&quot;&gt;SecondArrayIn&lt;/font&gt;&lt;/div&gt;" style="rounded=1;whiteSpace=wrap;html=1;fillColor=#FFFFFF;strokeColor=#000000;" parent="1" vertex="1">
                    <mxGeometry x="354" y="20" width="120" height="50" as="geometry"/>
                </mxCell>
                <mxCell id="6" style="edgeStyle=none;html=1;entryX=0.5;entryY=0;entryDx=0;entryDy=0;strokeColor=#000000;" parent="1" source="3" target="4" edge="1">
                    <mxGeometry relative="1" as="geometry"/>
                </mxCell>
                <mxCell id="3" value="&lt;font color=&quot;#000000&quot;&gt;string[] array1&lt;br&gt;string[] array 2&lt;br&gt;int count = 0&lt;/font&gt;&amp;nbsp;" style="shape=parallelogram;perimeter=parallelogramPerimeter;whiteSpace=wrap;html=1;fixedSize=1;strokeColor=#000000;fillColor=#FFFFFF;" parent="1" vertex="1">
                    <mxGeometry x="340" y="110" width="150" height="80" as="geometry"/>
                </mxCell>
                <mxCell id="9" style="edgeStyle=none;html=1;entryX=0.5;entryY=0;entryDx=0;entryDy=0;strokeColor=#000000;" parent="1" source="4" target="7" edge="1">
                    <mxGeometry relative="1" as="geometry"/>
                </mxCell>
                <mxCell id="4" value="&lt;p style=&quot;font-family: &amp;#34;consolas&amp;#34; , &amp;#34;courier new&amp;#34; , monospace ; line-height: 19px&quot;&gt;&lt;font style=&quot;font-size: 12px&quot; color=&quot;#000000&quot;&gt;for (int i = 0; i &amp;lt; array1.Length; i++)&lt;/font&gt;&lt;/p&gt;" style="shape=hexagon;perimeter=hexagonPerimeter2;whiteSpace=wrap;html=1;fixedSize=1;fillColor=#FFFFFF;strokeColor=#000000;" parent="1" vertex="1">
                    <mxGeometry x="279" y="220" width="270" height="100" as="geometry"/>
                </mxCell>
                <mxCell id="11" value="&lt;font color=&quot;#000000&quot; style=&quot;background-color: rgb(255 , 255 , 255)&quot;&gt;NO&lt;/font&gt;" style="edgeStyle=none;html=1;fontSize=12;entryX=1;entryY=0.5;entryDx=0;entryDy=0;exitX=1;exitY=0.5;exitDx=0;exitDy=0;strokeColor=#000000;" parent="1" source="7" target="4" edge="1">
                    <mxGeometry relative="1" as="geometry">
                        <mxPoint x="684" y="400" as="targetPoint"/>
                        <Array as="points">
                            <mxPoint x="700" y="400"/>
                            <mxPoint x="700" y="270"/>
                        </Array>
                    </mxGeometry>
                </mxCell>
                <mxCell id="13" value="" style="edgeStyle=none;html=1;fontSize=12;strokeColor=#000000;" parent="1" source="7" target="12" edge="1">
                    <mxGeometry relative="1" as="geometry"/>
                </mxCell>
                <mxCell id="7" value="&lt;div style=&quot;font-family: &amp;#34;consolas&amp;#34; , &amp;#34;courier new&amp;#34; , monospace ; line-height: 19px&quot;&gt;&lt;font style=&quot;font-size: 12px&quot; color=&quot;#000000&quot;&gt;if(array1[i].Length &amp;lt;= 3)&lt;/font&gt;&lt;/div&gt;" style="rhombus;whiteSpace=wrap;html=1;strokeColor=#000000;fillColor=#FFFFFF;" parent="1" vertex="1">
                    <mxGeometry x="299" y="360" width="230" height="80" as="geometry"/>
                </mxCell>
                <mxCell id="15" value="&lt;span style=&quot;background-color: rgb(255 , 255 , 255)&quot;&gt;&lt;font color=&quot;#000000&quot;&gt;YES&lt;/font&gt;&lt;/span&gt;" style="edgeStyle=none;html=1;fontSize=12;entryX=0;entryY=0.5;entryDx=0;entryDy=0;exitX=0;exitY=0.5;exitDx=0;exitDy=0;strokeColor=#000000;" parent="1" source="12" target="4" edge="1">
                    <mxGeometry relative="1" as="geometry">
                        <mxPoint x="134" y="520" as="targetPoint"/>
                        <Array as="points">
                            <mxPoint x="160" y="520"/>
                            <mxPoint x="160" y="270"/>
                        </Array>
                    </mxGeometry>
                </mxCell>
                <mxCell id="12" value="&lt;div style=&quot;font-family: &amp;#34;consolas&amp;#34; , &amp;#34;courier new&amp;#34; , monospace ; font-size: 14px ; line-height: 19px&quot;&gt;&lt;div&gt;&lt;font color=&quot;#000000&quot;&gt;array2[count] = array1[i];&amp;nbsp; &amp;nbsp;count++&lt;/font&gt;&lt;/div&gt;&lt;/div&gt;" style="rounded=0;whiteSpace=wrap;html=1;fontSize=12;fillColor=#FFFFFF;strokeColor=#000000;" parent="1" vertex="1">
                    <mxGeometry x="294" y="490" width="240" height="60" as="geometry"/>
                </mxCell>
            </root>
        </mxGraphModel>
    </diagram>
</mxfile>